/* XPM */
static char *result[] = {
/* columns rows colors chars-per-pixel */
"64 64 232 2 ",
"   c #0C0A0B",
".  c #060405",
"X  c #110E0C",
"o  c #16120F",
"O  c #171412",
"+  c #241D17",
"@  c #27221D",
"#  c #292320",
"$  c #342C25",
"%  c #3B332A",
"&  c #463C31",
"*  c #564A38",
"=  c #514739",
"-  c #765929",
";  c #675432",
":  c #7A6339",
">  c #5E5751",
",  c #544D47",
"<  c #635844",
"1  c #665F59",
"2  c #766A57",
"3  c #79715A",
"4  c #73664D",
"5  c #777065",
"6  c #975804",
"7  c #8B5911",
"8  c #986813",
"9  c #AA6B02",
"0  c #A36503",
"q  c #AD7405",
"w  c #B37501",
"e  c #B57B02",
"r  c #BB7D01",
"t  c #AB7B18",
"y  c #B37D11",
"u  c #86662A",
"i  c #987934",
"p  c #866C36",
"a  c #8E7E56",
"s  c #8C7645",
"d  c #837B6C",
"f  c #877E72",
"g  c #BE8302",
"h  c #BB8508",
"j  c #B38313",
"k  c #B98B17",
"l  c #BE911A",
"z  c #B6892C",
"x  c #B98C28",
"c  c #BB912B",
"v  c #A7883C",
"b  c #B58E3B",
"n  c #B88D34",
"m  c #B9923C",
"M  c #9E8136",
"N  c #C28601",
"B  c #C48B03",
"V  c #C98E02",
"C  c #C48E09",
"Z  c #C88E08",
"A  c #CD9301",
"S  c #C9940A",
"D  c #C9950A",
"F  c #D19601",
"G  c #D59C01",
"H  c #D89E01",
"J  c #D29E0C",
"K  c #C99717",
"L  c #D19F16",
"P  c #D7A103",
"I  c #DCA401",
"U  c #DFA903",
"Y  c #D6A20C",
"T  c #DAA50C",
"R  c #DDAA0C",
"E  c #D4A214",
"W  c #DCAB13",
"Q  c #DBAC1C",
"!  c #D6A618",
"~  c #E0A701",
"^  c #E1AB01",
"/  c #E1AE0C",
"(  c #E6B402",
")  c #EABB02",
"_  c #E4B20D",
"`  c #EABE0B",
"'  c #E7B803",
"]  c #E1AF14",
"[  c #E4B412",
"{  c #EABC14",
"}  c #E3B41B",
"|  c #E6BA1E",
" . c #E8BB17",
".. c #C79925",
"X. c #C69C39",
"o. c #D4A728",
"O. c #D5AB37",
"+. c #DEB537",
"@. c #D5AA29",
"#. c #E6BA23",
"$. c #E9BE21",
"%. c #E5BA2B",
"&. c #E4BB34",
"*. c #EDC104",
"=. c #EDC20B",
"-. c #F0C704",
";. c #F3CB03",
":. c #F1C90C",
">. c #F5D204",
",. c #F4D60B",
"<. c #EDC313",
"1. c #ECC21C",
"2. c #EFC81A",
"3. c #F1CB12",
"4. c #F0CD1D",
"5. c #F4D718",
"6. c #EAC22D",
"7. c #EDC524",
"8. c #F4D928",
"9. c #EAC334",
"0. c #EBC53B",
"q. c #EEC935",
"w. c #F2CF2D",
"e. c #F6E129",
"r. c #97875A",
"t. c #A58745",
"y. c #AC924B",
"u. c #B2944C",
"i. c #B99747",
"p. c #BB9A54",
"a. c #BA9D5C",
"s. c #B49857",
"d. c #B0924D",
"f. c #BEA25B",
"g. c #988A66",
"h. c #938B76",
"j. c #B49D65",
"k. c #A4966F",
"l. c #BAA166",
"z. c #BAA26B",
"x. c #B2A06D",
"c. c #BBA776",
"v. c #C19D4A",
"b. c #C9A44A",
"n. c #C6A859",
"m. c #DAB453",
"M. c #D5B255",
"N. c #C4A968",
"B. c #CEB66B",
"V. c #CDB266",
"C. c #D6B96B",
"Z. c #C3AC74",
"A. c #C1AC7C",
"S. c #CAB379",
"D. c #D3BC7A",
"F. c #D7BC73",
"G. c #EBC848",
"H. c #E7C859",
"J. c #F0CE47",
"K. c #DAC179",
"L. c #DFC066",
"P. c #E6C865",
"I. c #ECD168",
"U. c #E3CA79",
"Y. c #F0D676",
"T. c #9A9486",
"R. c #A59E89",
"E. c #A69F94",
"W. c #ACA596",
"Q. c #BCB498",
"!. c #B4AB8E",
"~. c #BAB4A4",
"^. c #C9B585",
"/. c #CCBA8E",
"(. c #C8B588",
"). c #D2BD89",
"_. c #C9BA96",
"`. c #CAB78A",
"'. c #DAC589",
"]. c #D3C39C",
"[. c #D9C897",
"{. c #D6C99C",
"}. c #E3CD89",
"|. c #E1CE96",
" X c #E4D39D",
".X c #E9D697",
"XX c #EED98B",
"oX c #CBC2A5",
"OX c #D4C6A3",
"+X c #DBCCA4",
"@X c #DACEAC",
"#X c #D6CAA9",
"$X c #DDD1AD",
"%X c #DED1A5",
"&X c #CCC7BB",
"*X c #DDD2B3",
"=X c #DED6BA",
"-X c #D2CDBA",
";X c #E4D4A4",
":X c #EADAA3",
">X c #EBDCAA",
",X c #E5D6AA",
"<X c #E1D6B4",
"1X c #EADCB3",
"2X c #E3DABC",
"3X c #E6DBB8",
"4X c #E0CFA2",
"5X c #F2E3A8",
"6X c #EDE2B9",
"7X c #F5EAB9",
"8X c #EFE2AF",
"9X c #DBD7C7",
"0X c #D0CCC3",
"qX c #E4DDC3",
"wX c #E3DECB",
"eX c #ECE3C4",
"rX c #EBE5CA",
"tX c #F2EBCD",
"yX c #F2EAC7",
"uX c #FBF3CA",
"iX c #EAE7D8",
"pX c #F2ECD3",
"aX c #F2EFD8",
"sX c #F5F2DC",
"dX c #F8F4DA",
"fX c #F5F4E4",
"gX c #F8F7E4",
"hX c #F9F8E5",
"jX c #FAFAEB",
"kX c #F6F6E9",
"lX c #EDEDE1",
"zX c None",
/* pixels */
"zXzXzXzXzXzXzXzXzXzXzXzXzXzXzXkXfXlXfXzXzXfXkXkXkXkXgXsXsXzXzXzXzXzXzXzXzXzXzXzXzXzXzXzXzXzXzXzXzXzXzXzXzXzXzXzXzXzXzXzXzXzXzXzX",
"zXzXzXzXzXzXzXzXjXjXjXgXgXjXjXgXfXfXkXkXdXaXsXsXaXdXfXsXsXsXgXfXdXgXgXaX9XzXzXzXzXzXzXzXzXzXzXzXzXzXzXzXzXzXzXzXzXzXzXzXzXzXzXzX",
"zXzXzXzXzXkXjXjXjXgXdXaXpXtXyXeXeXeXqXeXqX<X<X<X2XtXtXwX2X2XqXqXrXrXpXaXaXsXaXzXzXzXzXzXzXzXzXzXzXzXzXzXzXzXzXzXzXzXzXzXzXzXzXzX",
"zXzXzXzXiXkXgXaXtXyXeXeX3X1X<X<X<X<X$X@X$X4X$X$X$X<X3X<X@X@X<X*X<X2XqXqXqXqXqXrXqXzXzXzXzXzXzXzXzXzXzXzXzXzXzXzXzXzXzXzXzXzXzXzX",
"zXzXzXwXpXaXpXyXeX3X3X1X,X@X+X{.].].].].].].].]._.+XOX_.OX_.].OXOX*X<X*X=X=X2X2XqX-XzXzXzXzXzXzXzXzXzXzXzXzXzXzXzXzXzXzXzXzXzXzX",
"zXzXzXwXpXtXyXyX3X1X,X,X+X[.].).).).).).^.^.^.^.`././.`./.)._._.].OX#X#X@X*X=XqXqX=XzXzXzXzXzXzXzXzXzXzXzXzXzXzXzXzXzXzXzXzXzXzX",
"zXzXzXrXpXtXeX6X1X>X4X[.[.).)./.^.^.^.Z.Z.c.Z.c.A.A.A.A.^.^.^.(.(._.].oXOX@X*X2XqX=XzXzXzXzXzXzXzXzXzXzXzXzXzXzXzXzXzXzXzXzXzXzX",
"zXzXzXqXtXrX6X3X,X;X[.[.).).S.S.Z.Z.N.z.l.l.z.j.j.j.z.z.j.Z.c.c.^.(./._.OX#X*XqXqX2XzXzXzXzXzXzXzXzXzXzXzXzXzXzXzXzXzXzXzXzXzXzX",
"zXzXzXqXpXeX1X1X;X X).).).S.S.N.N.N.l.l.l.a.j.j.a.s.s.j.j.j.j.Z.c.^.(./._.$X$X=XqXqXzXzXzXzXzXzXzXzXzXzXzXzXzXzXzXzXzXzXzXzXzXzX",
"zXzXzXqXyXeX1X1X4X|.}.).D.S.V.N.l.l.v.a.s.v.v.v.s.s.s.j.s.n.j.j.z.c.^./._.+X$X<XqX*XzXzXzXzXzXzXzXzXzXzXzXzXzXzXzXzXzXzXzXzXzXzX",
"zXzXzXeXeXeX1X;X X[.).D.S.V.N.n.v.a.v.v.v.v.i d.i v.i v.s.p.p.j.j.N.c.^./._.#X<X2X@XzXzXzXzXzXzXzXzXzXzXzXzXzXzXzXzXzXzXzXzXzXzX",
"zXzXzX<XeX6X,X X|.}.F.C.V.n.n.b.v.v.b X.b b v.b i v.X.t.i.i.i.i.a.N.N.Z.`.).OX$X<X@XzXzXzXzXzXzXzXzXzXzXzXzXzXzXzXzXzXzXzXzXzXzX",
"zXzXzX2X6X1X4X}.}.K.C.M.M.b.X.X...X.z z z z z z n n n n n m m i.v.v.n.V.S.).).$X*X#XzXzXzXzXzXzXzXzXzXzXzXzXzXzXzXzXzXzXzXzXzXzX",
"zXzXzX<X1X:X}.}.L.m.b.O...K Z Z Z Z Z Z Z Z Z Z Z Z Z Z C K K ......X.b.n.B.).[.@XOXzXzXzXzXzXzXzXzXzXzXzXzXzXzXzXzXzXzXzXzXzXzX",
"zXzXzX).F.m.+.%.] T H H H F F F F F F F F F F F F F F F G H H G F J H J L o.O.m.D.^.zXzXzXzXzXzXzXzXzXzXzXzXzXzXzXzXzXzXzXzXzXzX",
"zXzXzX..K T H R ] ~ ~ ~ H H H H F F F F F F F F F F F F F G G H H H P T I T T L ..X.zXzXzXzXzXzXzXzXzXzXzXzXzXzXzXzXzXzXzXzXzXzX",
"zXzXzXK ! ] [  .[ { _ ( U ^ U I I P H H F H F F F G G F G G P H I P P I U / Q E K ..zXzXzXzXzXzXzXzXzXzXzXzXzXzXzXzXzXzXzXzXzXzX",
"zXzXzXo.}  . . .<.{ ` ' U ( U U ~ I H H H F F H H H H G H G H I U ^ U / / | W W ! ..zXzXzXzXzXzXzXzXzXzXzXzXzXzXzXzXzXzXzXzXzXzX",
"zXzXzXo.] {  . .{ { ' ' _ ^ U U ~ ~ I H H H H H H ~ H H H ~ I ~ ( ^ _ ' _ [ } } o...zXzXzXzXzXzXzXzXzXzXzXzXzXzXzXzXzXzXzXzXzXzX",
"zXzXzX..] [ [  .<.{ _ ( ^ ^ ^ ^ ~ I I H ~ H H H ~ ~ ~ ~ ~ ~ ~ ^ _ ' ` ` _  .[ } %...zXzXzXzXzXzXzXzXzXzXzXzXzXzXzXzXzXzXzXzXzXzX",
"zXzXzX..] / [ {  .[ ( U I U U I ~ I ~ I ~ ~ I ~ ~ ~ ^ ^ ( ( ( ( ' ` ` ` `  .| #.+...zXzXzXzXzXzXzXzXzXzXzXzXzXzXzXzXzXzXzXzXzXzX",
"zXzXzXK ] ] [  .<.[ R P I I I P ^ ^ ^ I ~ ~ ^ ~ ~ ^ ^ ^ ( ( ( ) ' *.=.{ ` { $.G.+.O.zXzXzXfXjXjXjXhXkXaXzXzXzXzXzXzXzXzXzXzXzXzX",
"zXzXzX..] ] [ [ _ _ I P U P H I I ^ ^ ^ ^ ^ ^ ^ ^ ^ ^ ( ( ) ` ) ` ` =.` <.1.q.G.H.b.zXfXjXqXW.f d d E.&XrXeXzXzXzXzXzXzXzXzXzXzX",
"zXzXzXC J / / [ [ _ P A G F I U P I ~ ^ ^ ^ ( ^ ( ( ( ( ' ` :.) ` =.=.<.<.1.q.J.P.;XkXdX~.= % > 5 > % $ 1 _.%X2XzXzXzXzXzXzXzXzX",
"zXzXzXC Y R R [ [ R H G F P P P ~ I ^ ^ ^ ( ( ( ( ( ( ' ) -.) -.` ` <.{ <.1.q.Y.XXuXjX%XS.W.&XiXiXiX0XE.% $ d A.@XzXzXzXzXzXzXzX",
"zXzXzXK Y T R _ ] U P F G H H G ^ I ^ ^ ^ ( ( ( ( ( ( ) ) ) :.) ) ` <.<.<.1.J.Y..X;XwX(.>XeXzXzXzXzXzXlX0X= o = x.].zXzXzXzXzXzX",
"zXzXzXk J T R [ R U G A H H H I ~ ~ ^ ^ ^ ( ( ( ( ( ) ) ` -.` ) *.=.` <.1.2.6.Y.5X4 & a ].zXzXzXzXzXzXzXzX0X%   ; c.zXzXzXzXzXzX",
"zXzXzXk J T R R R T G A A H P I I ~ ^ ^ ( ( ( ' ) ) ) ) ) ;.) ` ` =.{ <.<.<.w.Y..X; % j.zXzXzXzXzXzXzXzXzXzXT.O X g.'.zXzXzXzXzX",
"zXzXzXk J P R R _ T G A F P P I ~ ~ ^ ^ ( ( ( ' ' ) ( ) ) ) :.) ` =.` <.<.1.7.0.I.2 s zXzXzXzXzXzXzXzXzXzXzX~.% . = [.zXzXzXzXzX",
"zXzXzXk J R R [ _ U P F P P P I I ~ ~ ^ ^ ( ( ' ( ) ) ) ) -.=.` ` ` :.=.<.7.6.0.XXoX^.zXzXzXzXzXzXzXzXzXzXzXzX* . + Q.%XzXzXzXzX",
"zXzXzXl Y R / _ _ R P P P P P U ~ ~ ~ ^ ( ( ( ' ) ) ' ) ) ` ` ) ) ` { <.<.1.$.G..X{.B.zXzXzXzXzXzXzXzXzXzXzXzX* @ X 5 7XzXzXzXzX",
"zXzXzXl Y R R _ [ / U I P I P U I ^ ^ ^ ^ ( ( ' ) ) ) ) ) ` :.) ` ` { <.<.$.| %.H.'.zXzXzXzXzXzXzXzXzXzXzXzXzXzX+ O % 6XzXzXzXzX",
"zXzXzXl Y R / _ _ / I I I I I I ~ ^ ^ ^ ^ ( ( ' ) ) ) ) ) :.:.-.=.` <.{ <.7.| #.+.K.zXzXzXzXzXzXzXzXzXzXzXzXzXzX+   O @X8XzXzXzX",
"zXzXzXx Y R _ [ _ _ I I U I H ^ ^ ~ ^ ^ ( ( ' ' ) ) ) ) ) ` ` ) ) ` =.<.{ 1.$.#.Q x zXzXzXzXzXzXzXzXzXzXzXzXzXzX+   o Q.7XzXzXzX",
"zXzXzXK ! / _ { { _ ^ ^ ^ U I ^ ~ ~ ^ ^ ( ( ( ' ) ' ) ) ) ` =.` =.` <.<.<.1.$.#.! j zXzXzXzXzXzXzXzXzXzXzXzXzXzX+ . X !.7XzXzXzX",
"zXzXzX..T / [ [ { ' ^ ^ U ^ ~ ~ ~ ^ ~ ^ ^ ( ' ' ' ) ) ) ) ` :.` -.` ` { { $. .#.Q j zXzXzXzXzXzXzXzXzXzXzXzXzXzX$ X X !.yXzXzXzX",
"zXzXzXK T ] _ [ [ ' _ U I ^ I ^ ~ ~ ^ ^ ( ( ( ' ) ) ) ) -.) :.` ` ` =.{ <. .$.| E t zXzXzXzXzXzXzXzXzXzXzXzXzXzX= o o Q.7XzXzXzX",
"zXzXzXl E / /  ._ _ ^ U ^ ~ ~ I ~ ~ ~ ^ ^ ( ( ( ) ) ) ) ) ` ` ` ` =.=.3.3.1.$. .! j zXzXzXzXzXzXzXzXzXzXzXzXzXzX, . o _.:XzXzXzX",
"zXzXzXl Y R [ [ _ _ U U ~ I ~ I ~ ~ ^ ^ ( ( ( ) ) ) ) ) ) -.=.` ` :.3.<.2.2.|  .E t zXzXzXzXzXzXzXzXzXzXzXzXzXiX1   @ {.}.zXzXzX",
"zXzXzXk J R [ [ _ / U I P I I I H ~ ~ ^ ^ ( ( ) ) ) ) ) ) -.:.-.=.-.3.3.<.2.1.#.L t zXzXzXzXzXzXzXzXzXzXzXzXzXiX, . = ;XD.zXzXzX",
"zXzXzXx Y R R [ [ / I I P I P P H ~ ~ ~ ^ ^ ( ( ) ) ) ) -.-.:.=.=.:.3.3.<.4.7.#.E j zXzXzXzXzXzXzXzXzXzXzXzXlX0X% O 2 >XzXzXzXzX",
"zXzXzXk Y R R [ [ U I P P P H H H ~ ~ ~ ^ ( ( ' ' ) ) -.) -.;.=.-.:.3.3.3.2.7.| L y zXzXzXzXzXzXzXzXzXzXzXzXkXE.X O c.>XzXzXzXzX",
"zXzXzXk E W R [ / / I I I H H H H ~ ~ ~ ~ ^ ( ( ) ) ) -.) -.;.-.=.,.3.3.5.4.7.| L y zXzXzXzXzXzXzXzXzXzXzXlXkX> . %  X:XzXzXzXzX",
"zXzXzXk L R R R _ / U I H H H H H H H ~ ~ ^ ( ( ' ) ) ) -.-.;.;.;.,.3.5.4.4.2.| D 8 zXzXzXzXzXzXzXzXzXzXiXjX&X#   g.8XzXzXzXzXzX",
"zXzXzXk J T R [ ] ^ U P H H H F H H ~ ~ ~ ^ ( ( ( ' ) ) -.-.;.;.>.,.,.5.5.8.w.#.S 8 zXzXzXzXzXzXzXzXzXzXkXjX5   =  X8XzXzXzXzXzX",
"zXzXzXk L W R [ / ^ U P H H F H F H H H ~ ~ ^ ^ ( ( ) ) ) ;.>.>.>.,.,.5.5.8.7.#.B 8 zXzXzXzXzXzXzXzXzXkXjX&X# O k.7XzXzXzXzXzXzX",
"zXzXzXj L W T W / / I I H H F H H H H H H ~ ~ ^ ^ ( ) ) ' ;.>.;.>.,.5.e.8.8.w.#.h 6 zXzXzXzXzXzXzXzXlXjXfX5   ; :X8XzXzXzXzXzXzX",
"zXzXzXj D Y R [ ] ^ ~ I H H H F F F H H H ~ ^ ~ ~ ( ' ) ) -.;.;.>.,.5.e.e.e.w.$.y 7 zXzXzXzXzXzXzXlXjXjX~.@ $ ].7XzXzXzXzXzXzXzX",
"zXzXzXj D P R W _ U I I P G G G F F F G G H H H ~ ^ ( ' ) -.;.;.>.,.,.e.e.e.w.&.j 6 zXzXzXzXzXzXiXjXjX9X= O g.7X7XzXzXzXzXzXzXzX",
"zXzXzXj D J Y R / R I I P G G A F F F F F F G H ~ ~ ^ ( ' -.;.;.>.>.5.e.e.e.w.0...t.zXzXzXzXzXiXjXjXiX2 O 3 7X7XzXzXzXzXzXzXzXzX",
"zXzXzXj D Y T R R U I P G G A A A A F V V F F F H H ~ ^ ' ) -.*.;.>.,.e.8.e.w.0.m.'.eXpXrXrXsXhXfXiX5 @ < ;XuX6XzXzXzXzXzXzXzXzX",
"zXzXzXj D J T W R U P P G G A A V V A V F N V A G H I ^ ^ ) ) ) -.>.5.5.e.8.w.0.L.4XpXgXsXdXdXfXiXh.@ , |.uX7XzXzXzXzXzXzXzXzXzX",
"zXzXzXk C J T W R U P P G A A V V V V B N w r A A F G H ~ ( ) ' *.;.:.5.e.5.w.&.U.qXaXdXdXfXgXrXd @ 4 {.uXyXzXzXzXzXzXzXzXzXzXzX",
"zXzXzXz D E ! W R R P P A A V B B N N r r g G B N V V F H ~ ( ' ) *.*.5.5.5.q.+.C.2XpX$X/./.oX1 $ 3 >XuXyXzXzXzXzXzXzXzXzXzXzXzX",
"zXzXzXk L @.] | ] Y P P A B g g r r w w w w e w w r N V V G H H P ( ' =.=.=.| ! v.oXoXt.p.f.f.r.Z.7XuXtXzXzXzXzXzXzXzXzXzXzXzXzX",
"zXzXzXc @.%.#.#.] T J G B g e e 9 w 9 9 9 9 0 0 0 0 9 9 w r B w e A J Y P F J ..u 4 ; a.XX5X.X5XuXuXuXzXzXzXzXzXzXzXzXzXzXzXzXzX",
"zXzXzXn +.%.&.%.Q T J A h h h q j 0 0 q h 0 6 6 6 6 0 8 7 8 j j h g h h h j q y.i ; ; S.5X5X7X7XuXyXzXzXzXzXzXzXzXzXzXzXzXzXzXzX",
"zXzXzX8 ..&.9.&.6.#.W ] Y J D h D h l h D h h h h h h h D D J L ! W ! Q ! L l v.!.r.: [.7X7X5X:X:XzXzXzXzXzXzXzXzXzXzXzXzXzXzXzX",
"zXzXzXu t o.&.G.H.J.H.J.H.G.0.0.G.0.0.q.q.9.9.6.w.6.6.6.6.q.0.0.G.G.G.J.0.%.@.X.'.k.k.rXuX}.m.K.zXzXzXzXzXzXzXzXzXzXzXzXzXzXzXzX",
"zXzXzXi y.v.n.F.}.:X:X:X.XXXY.Y.I.I.I.J.I.H.I.H.H.H.H.m.P.P.Y.U.U.}.}.K.B.f.n v z.r.g.rXuXF.zXzXzXzXzXzXzXzXzXzXzXzXzXzXzXzXzXzX",
"zXzXzXg.k.k.(.~._._.Q.Q.c.x.x.x.y.y.y.v i.y.y.y.y.f.f.L.B.K.{.D.|.:X.X|.K.c.y.t.s r.r.].2XzXzXzXzXzXzXzXzXzXzXzXzXzXzXzXzXzXzXzX",
"zXzXzXT.E.W.~.~.T.R.g.g.s - - : - M : M M M M v m i.f.B.B.K..X'.:X8X.X|.K.f.v : a k.x.zXzXzXzXzXzXzXzXzXzXzXzXzXzXzXzXzXzXzXzXzX",
"zXzXzXh.T.T.E.W.h.T.3 s : - - - - - - : M M M v y.X.f.V.B.D.'.|. X:X X'.K.f.t.: s h.zXzXzXzXzXzXzXzXzXzXzXzXzXzXzXzXzXzXzXzXzXzX",
"zXzXzX3 2 1 < s * * $ = - ; - - - : M M v M m y.i.f.f.B.D.U.|. X:X>X:X|.K.l.y.t.r.R.zXzXzXzXzXzXzXzXzXzXzXzXzXzXzXzXzXzXzXzXzXzX"
};
