/* XPM */
static char *adf9e179b95e4c30b44f5ccdec19d9fbauYoYpKMvMoJQujf[] = {
/* columns rows colors chars-per-pixel */
"64 64 189 2 ",
"   c None",
".  c #160E03",
"X  c #0F100A",
"o  c #1B140D",
"O  c #1E1C0C",
"+  c #14120E",
"@  c #140E11",
"#  c #161613",
"$  c #1B1714",
"%  c #1C1B16",
"&  c #19161C",
"*  c #1E1B1A",
"=  c #211E0E",
"-  c #221E12",
";  c #221E1B",
":  c #24200E",
">  c #2A270E",
",  c #252214",
"<  c #2A2515",
"1  c #2C2915",
"2  c #25231C",
"3  c #29251C",
"4  c #27281F",
"5  c #2D2A1D",
"6  c #30271C",
"7  c #312D1C",
"8  c #34311E",
"9  c #1B1821",
"0  c #211E21",
"q  c #252423",
"w  c #2A2623",
"e  c #272824",
"r  c #2C2A24",
"t  c #26242A",
"y  c #29262A",
"u  c #2D2B2B",
"i  c #312D25",
"p  c #322E2B",
"a  c #2F3129",
"s  c #2E3025",
"d  c #343224",
"f  c #393526",
"g  c #3B3926",
"h  c #34322C",
"j  c #3A352C",
"k  c #37382C",
"l  c #3D3A2C",
"z  c #2E2B30",
"x  c #322D32",
"c  c #352F38",
"v  c #2F3030",
"b  c #353333",
"n  c #3A3633",
"m  c #3C3A34",
"M  c #363439",
"N  c #3A363A",
"B  c #373838",
"V  c #3C3B3B",
"C  c #40372B",
"Z  c #413D2D",
"A  c #423D33",
"S  c #483F36",
"D  c #423D3B",
"F  c #493F38",
"G  c #3F413C",
"H  c #44412E",
"J  c #454234",
"K  c #4A4435",
"L  c #4C4936",
"P  c #45423C",
"I  c #4A463B",
"U  c #4D4A3C",
"Y  c #574A37",
"T  c #524C3D",
"R  c #594F3E",
"E  c #55513E",
"W  c #59533E",
"Q  c #5C583D",
"!  c #625B3F",
"~  c #3D3C41",
"^  c #423E42",
"/  c #3F4141",
"(  c #444343",
")  c #4A4643",
"_  c #4D4A43",
"`  c #454449",
"'  c #4C474B",
"]  c #4D4A4B",
"[  c #464843",
"{  c #524D43",
"}  c #524D4B",
"|  c #565243",
" . c #5A5544",
".. c #5D5A45",
"X. c #55524B",
"o. c #5A554B",
"O. c #5D5A4B",
"+. c #4D4C52",
"@. c #544E50",
"#. c #545351",
"$. c #595653",
"%. c #5D5A53",
"&. c #5D5B5A",
"*. c #565558",
"=. c #615541",
"-. c #625C45",
";. c #625D4B",
":. c #615B4F",
">. c #625D4D",
",. c #625D4B",
"<. c #695E4F",
"1. c #695F43",
"2. c #655E51",
"3. c #625D53",
"4. c #615B5D",
"5. c #685E53",
"6. c #646144",
"7. c #696244",
"8. c #65624C",
"9. c #6A654D",
"0. c #6D694E",
"q. c #72654E",
"w. c #746C4E",
"e. c #656253",
"r. c #6A6553",
"t. c #6D6B53",
"y. c #64625B",
"u. c #6A6559",
"i. c #6E6A5A",
"p. c #726552",
"a. c #716C55",
"s. c #726C5B",
"d. c #7A6D55",
"f. c #74725B",
"g. c #7B755E",
"h. c #7A795E",
"j. c #787155",
"k. c #655F62",
"l. c #656463",
"z. c #696563",
"x. c #6B6867",
"c. c #6C6A6A",
"v. c #716D63",
"b. c #706C6A",
"n. c #767263",
"m. c #7A7463",
"M. c #7C7A64",
"N. c #7B756A",
"B. c #7E7A6B",
"V. c #77746D",
"C. c #6D6C72",
"Z. c #706F72",
"A. c #7E7B74",
"S. c #7C777A",
"D. c #817C64",
"F. c #817C6C",
"G. c #867F72",
"H. c #838266",
"J. c #82816A",
"K. c #8A886E",
"L. c #858373",
"P. c #898574",
"I. c #8C8B74",
"U. c #87807B",
"Y. c #8A867A",
"T. c #8E8C7B",
"R. c #908F7A",
"E. c #94947C",
"W. c #99987E",
"Q. c #939276",
"!. c #898585",
"~. c #8D8A81",
"^. c #908C8C",
"/. c #959182",
"(. c #9C9C85",
"). c #94918A",
"_. c #999785",
"`. c #979391",
"'. c #A09A8A",
"]. c #A1A18C",
"[. c #A8A892",
"{. c #ADA899",
"}. c #A6A296",
"|. c #B0B097",
" X c #B4B49C",
".X c #B7B0A2",
"XX c #BFBEA9",
"oX c #B9B6A3",
"OX c #D0D0B8",
/* pixels */
"                                                                                                                                ",
"                                j ) F C j C S I T T A f d h k ; m j p f S F S S l f i i m n r                                   ",
"                                b.m.5.:.:.:.p.s.B.B.n.e.o.O.X.i %.{ X.2.s.s.u.<. .| { U { { _ n                                 ",
"                              3.N.G.m.<.o.;.:.;.;.i.v.8.o.O.| i y.| | :.5.e.>. .| T  .;.o.o.o.U f                               ",
"                            O.u.:.s.r.o...2.8.<.;.;...T | | K k $.E U | | E E | E W E U T E | | { j                             ",
"                        _ B.B.2.;.U A f j C Z C g f i r d d 2 , d r r s r i 7 d f f d 8 Z S Y o.:.T C                           ",
"                      J 5.F.G.i. .6 - , - , - < , , - , 5 i 3 h a r 2 = = O - , : = = : , 8 L =. .| { n                         ",
"                    I 3.%.:.v.2.j - i j j j A A n j j j n D D D m m h h a r 5 i i 7 5 6 < 7 C K T T T I m                       ",
"                  3.N.n.r.o.o.C 3 h n D S D _ ( F ^ ^ C A D ^ D V n m V b u h k k h i i i 6 6 C F T I { } I                     ",
"                e.Y.P.v.F.3.C ; j n A ^ D ( ' ^ D ^ D c ^ N D n n n b V b x b h b b p p r r w w C { o.{ O.X.A                   ",
"              :.Y.E.m.N.F.F ; A D N ( +.^ ^ ` ^ ^ ^ ^ D D c n D n u y b b B N x x x n N x p p 3 y S }  .| o.{ A                 ",
"            | s.L.L.F.F.' o w D V D ` ` ^ ^ ` ^ ^ ^ ^ n c j D } P r y b c N B c x x N ( x u p e ; p D | | o.o.{ A               ",
"            Y.f.u.m.F.o.- x c C B ~ / ( N ~ ^ ^ ^ ^ ^ D m m X.I { h p b N N x c N x c ^ z y u y 0 ; ; F  . .T | _ l             ",
"          ^.{.'.n.2.F o w C ^ ^ V ~ ~ / ~ ~ ~ B ^ ' D D P _ O.J  .J p p ^ V x x c c x c y y y r u w ; < H R R | O.{ j           ",
"        ~.F..X.XD.S o p x z c ~ B ~ G ( ( ~ B M ) _ n D I 8.-...-.W f p D D x y p z x c x z y t t r 3 - 6 S W :.>.:._ m         ",
"      ).G.m.F.F.I . 6 j j z ~ ^ ` ` ( ` ~ V B m P P j J O.9.8.0...8.T h x A x y z z x x z b a y q e 3 6 - 1 J o.3.O.O.{ h       ",
"    ~.}.{.T.u.m - w i p p C ~ ~ ~ ^ ( G B V G G m l g | h.8.7.Q ! 9.9.A w j j p x x x z u x x y r e 2 2 < ; < K :.;.3.3._       ",
"    N.].XX_.U * x c x x x c D N ~ ^ / V G G J G H H K 8.j.0.q.! w.! a. .C d p p x c x x y M y q a t q q 0 q w 3 U 5.r.2.o.      ",
"    O.i.J.t.l e N ~ D n D n N c ~ ^ ~ [ [ P U P l l | t.-.0.7.6.7.1.=.p.S 6 C F C x c x z c y x u 0 u z t q 2 5 T e. .| O.      ",
"    r.h.M.i.J q c ~ ^ ( F D D D ~ ^ V P [ / O.O.m H e.t.8.h.7.-.7.w. .:.=.f ) 3.' i p p x u y n B q u z u t 2 5 T 2. .T O.      ",
"    ..(.|.J.d t c M ^ ^ D D D ^ V B P [ G 3.y...I _ e...i.D.! H a.a.e.U o.I P I { { i w h p u b B r q t y y 2 ; H ..=.| |       ",
"    N.R.W.I.| * x c N D h n D ^ ^ [ P [ O.$.#.%.3.%.U J >.6.L G ..:.{ A I X.o.I I ) F p i h u r r t q t y y ; O g  . .| {       ",
"    B.T._.T.X.& x c c p i j V ( ^ ( P 3.z.%.v.n.e.O.m P U l l G m A j n S { X.u.3.J { T s 4 r e r q q q t q ; - J ;...E |       ",
"    R.R.(.(.e.+ x N x p p m m ^ n D e.V.3.~.~.y._ P P _ [ k m P h x D D b D D I u.u.U o.J 5 4 r u w ; 0 q q ; , U 9.;.o.|       ",
"    u.E.|.I.G 2 V ~ x p h P m V N v.Y.u.v.N.3._ _ D ) ) [ ( V B D V ~ ~ z b m j L O...E ,.U 4 < r e q ; t r 2 = J ..O.E _       ",
"    ,.i.J.f.G r ' +.` D m I k B z.U.F.2.{ _ ( _ ) F P ( ` V B V V N M M z v b k d G G L | 8.U s 3 2 u u t r 5 O H 8.6.E ..      ",
"    O.M.K.f.m a ` ' ' _ { _ P c.S.3.' S f n P P D [ P ( / / V B ~ B M ~ V M h u s , 5 d k J >.U w n u y r d 4 1 H Q Q E O.      ",
"    ..oXOXE.d m ' D ` X.J I N.^.4.D A j i m D h V ) [ V G ` / ~ ~ ~ M M b v h h a 4 2 < 4 s P %.X.h r h e 2 d 1 K 9.r. ...      ",
"    e.[. XI.G m } ~ D D I N.A.y.D A m n p p m m D P ( V V [ [ / B G / B v v v u r u r 4 2 i r S o.I p r 2 4 5 5 L 0.0.O.O.      ",
"    v.J.J.f.J V ' ^ b | Y.Y.X.m ^ n i h r w u h u u k V ( ( G B B B B v v u e * * q t e ; r h q n %.#.h e s 8 5 L ..-.8.e.      ",
"    i._.(.M.G B } ^ k.`.~.8.k _ F n h u w X.X.k m B r b V G V G G v k v e 0 v +.&.~ & t u r p h i P y.$.B 4 5 7 L 6.-.-.e.      ",
"    n.E.(.L.L k ' b.`.^.%.G J P D V B u q z.l.B G [ r h B m G P G B v v e t M l.C.+.9 0 y y q k p 2 [ u.%.m 1 5 E 6.Q E O.      ",
"    L.J.I.W.e.b b.^.!.#.l  .o.} [ P V a u x.l.B D ( p F ) ) D C G G m a y u / l.C.+.9 0 c z p n n d 3 _ &.X.G 8 E 9. .T  .      ",
"    B.M.E.E.3.&.!.S.' I X. .o.4.} ( G B a x.c.[ D D x ^ { ) S C H G J n e e ~ l.Z.*.0 t x N V S D j n w k | E H T 8...U E       ",
"    8.t.W.K.L u.b.^ ) { %.E I { } P ( m e *.&.( h b C ^ C { { Y Q Z f D u q q ` z.$.; y p N D n h m D h q h J J L 8...J U       ",
"    | 0.E.H.H 2 n ^ ) I _ { P n _ [ P V r [ X.b # p D A S 5.<.=.q.W f n b a % B #.( ; u x A j p f j k r 2 2 1 < L 0...J U       ",
"    8.Q 9.9.G 2 ` } } { { I P D _ P D V u [ $.V * n D j T p.p.{ p.9.A h k u % [ y.} * u x p j p p f i h h d r 1 T 9.W A |       ",
"    e.9.t.9.G f $.k.4.4.r.} { :.' ) m V a ] l.[ q P S l :.m.p.=.d.g.T k V a % ] c.*.; p j j n j p j m m n D g 5 T 8.T J X.      ",
"     .f.H.a.Z w D ' ' T | K A ) m P P m u [ &.[ % V ) P u.D.p.! q.D.{ m ( h # m &.@.; p n n j p p p j n p k i 1 U 8.T L o.      ",
"    E 6.7.<.Z ; x D ^ f f A i p h ) P b r V $.P + m U I r.f.0.! 1.w.E V [ b # u @.} $ y D n ; ; 3 3 3 w 2 2 , : E 6.K J {       ",
"    E E Q 6.g e ^ ' } } A U D r p ) P h e m X.P * a P J ..m.a.7.w.D.R D V r % b #.} 2 b D n ; w h i d b d 5 1 : | O.K J U       ",
"    L M.I.f.g ; @.k.4.V.2.o.o.A u D P h w M ] V ; s G L T g.a.! w.g.K D k q * u ] ] ; u n p w A A m P ) P G s O E 8.E U I       ",
"    f.K.Q.H.U q @.@.N S f i D #.p ( _ n r b #.P * s G U J i.7.-.j.q.Z P k q * a ] ) q p F n w ) w 2 2 r r P g : | r.|  .|       ",
"    M.h.h.M.| r $.k.D F j d j O.p _ _ n e B $.[ 2 5 G L I f.6...q.Q f P b t 2 b #.} ; b ) n r _ i i h a r I G : E 8.E | |       ",
"    t.h.H.h.L u 4.4.D } { U S #.p _ ) h e B #.( e b k G A O.i.;.0.L g D k r q v #.} ; p D p r ) i P S n r I l 1  .e.R | {       ",
"    ..h.H.t.l r 4.4.D o.| { m #.h P P k r V ] G e G B m U Z -.8...g P n u u r h @.} * p P p r K i { P P u J m 7  .8.W | X.      ",
"    ,.0.t.t.J r k.k.D o.{ T j o.n P P h e ( #.G y B k G _ m l T Z C J k h u e M *.#.; x ) j p P i _ m I k I G 7 | 9.W | X.      ",
"    ,.t.j.t.H r 4.4.n X.I I n o.h _ I h 4 [ &./ 0 b V V P P j f Z U m p h r * G z.&.% p ( n p ' i A m [ s H G 7  .r. .| o.      ",
"    | H.K.t.g w X.+.n } J U A o.h ) I h ; [ &.G % v ~ B b P _ i T P h p b e # ( l.$.$ p D h p } p n A D q I l 1  .0.....o.      ",
"     .a.h.8.g e @.X.n _ j j A #.h m P j ; V ] b # v V V B ~ P j P f n h p e % B @.^ $ p m h r X.i 3 p D r P m : E e...E o.      ",
"    ..8.6.E g 2 ) [ P X.j p D $.p P V r * #.&./ v B v / V V B n n n n D p e h ) 4.{ ; r m p r { w 2 d P a I g 1 L ..L U O.      ",
"    E 8.0.-.g 1 U U P X.m p D o.r [ m e q 4.z.[ B V v v V N N b b b x n y y B &.b.$.% u S p u [ i r j P h J k 7 | 8.E E ..      ",
"    X.s.J.h.J 5 | { ^ } } _ ) } u P V u q *.&.B v B z M B B B N N b c z t u G *.x.#.# r P k 4 I j D m P k J g 1 ..t...|  .      ",
"    3.s.J.m.L 5 { { D F ) } S n r D V y * $.*.m y v u b N B N V N b M v t e v #.l.@.X r G k ; k k m k a r U G 1 ..a.-.| |       ",
"    u.e.N.n.J r { Y p i u j e w 3 S D u 2 #.*.n * y p b x x n N N z u z v q 4 [ &.X.# e G d % e 4 e 2 , 5 K l > Q t.-.T {       ",
"    %.3.N.n.I 7 { } { F ^ _ D A D I P p 2 P P p r b b h n n n V M h v a u u e v G B 2 r G G a a s d k k l J g >  .j.=.L T       ",
"    { @.m.s.A < F | { } } =.^ F K J k d 2 r i 4 p j p h h p k b h p h w e a a 2 2 2 4 s k G k k k l J A Z g 8 > -.f.-.U {       ",
"    { Y 5.;.g < C C C i i 6 < 6 7 7 , 5 4 5 5 , 3 5 3 3 6 r i h i r 2 5 r , , 4 4 , , , : , 1 : , < 5 5 1 7 1 > W 0.R U {       ",
"    o.:.p.e.W T R | { I U R Y S G 8 8 s f f g l g l J J J J P g K J l Z A l g g d 5 7 7 7 g g g H L H J I L K H W -.W T  .      ",
"    { D.F.s.a.f.s.F.D.u.s.F.D.p.6.E E L L W ..O.8.8.e.r.O.8.e.l e.e.O.:.>.>.>. .E Y Y K L E ....t.i.;.O.i.e.8.-.Q -.r.;.{       ",
"    o.F.M.t.8.-.f.B.s.i.F.I.m.9.f...E E E | ..O.>.8.e.e.O...3.l 8.:.r.p.r.5.;.-.=. .W K L =.<.e.f.M.a.r.n.e.O... .<.s.3.{       ",
"    o.N.B.i.;...;.r.>.>.s.N.s.8.0.8..... .| ......O.e.e.O...8.l 2.O.:.<.=. . .R R W R T R -.9.5.a.s.<.X.$.| _ E T o.5.:.^       ",
"    I y.e...W E L U | _ _ O.>. .E  .E E L L L L J L L P J A J 5 J D U K K K S S S A S I K Y T Y T T J n J m m J J T  .I A       ",
"                                                                                                                                "
};
