/* XPM */
static char *result[] = {
/* columns rows colors chars-per-pixel */
"64 64 233 2 ",
"   c #1B1217",
".  c #241A1D",
"X  c #181928",
"o  c #1B1C35",
"O  c #191A36",
"+  c #0B102A",
"@  c #1E2138",
"#  c #2A292E",
"$  c #282425",
"%  c #342A2A",
"&  c #23233A",
"*  c #282838",
"=  c #312B32",
"-  c #39373A",
";  c #363333",
":  c #2B211E",
">  c #453D3B",
",  c #50342E",
"<  c #66372C",
"1  c #6E3D33",
"2  c #41201F",
"3  c #51413B",
"4  c #6C4635",
"5  c #774A38",
"6  c #7C523D",
"7  c #252B41",
"8  c #3B3C43",
"9  c #363847",
"0  c #363C54",
"q  c #2C324B",
"w  c #463E44",
"e  c #3C435B",
"r  c #354264",
"t  c #434142",
"y  c #4A4543",
"u  c #45444B",
"i  c #49464B",
"p  c #4B4A4C",
"a  c #4C4847",
"s  c #534A47",
"d  c #56524D",
"f  c #444552",
"g  c #4C4C54",
"h  c #4B4D5B",
"j  c #464958",
"k  c #514F52",
"l  c #504F5B",
"z  c #4E515C",
"x  c #545255",
"c  c #5A5554",
"v  c #54545B",
"b  c #5C5A5D",
"n  c #5A575B",
"m  c #7B5745",
"M  c #625D5A",
"N  c #665756",
"B  c #71524A",
"V  c #64615D",
"C  c #6C655D",
"Z  c #79635D",
"A  c #7C614E",
"S  c #484E61",
"D  c #4C546B",
"F  c #4E5465",
"G  c #535562",
"H  c #5C5C63",
"J  c #5A5D6B",
"K  c #54596A",
"L  c #575E73",
"P  c #4F546B",
"I  c #615F62",
"U  c #5D606C",
"Y  c #5F6066",
"T  c #5D6373",
"R  c #5D657A",
"E  c #59647D",
"W  c #646264",
"Q  c #6C6866",
"!  c #63646A",
"~  c #6D6A6B",
"^  c #696667",
"/  c #716D6C",
"(  c #766867",
")  c #77726E",
"_  c #636673",
"`  c #6B6C73",
"'  c #666B7C",
"]  c #666A78",
"[  c #726C70",
"{  c #6E717C",
"}  c #6F7072",
"|  c #747273",
" . c #797675",
".. c #74747C",
"X. c #7C7B7B",
"o. c #7B7878",
"O. c #824C3A",
"+. c #82533D",
"@. c #87583E",
"#. c #855B44",
"$. c #8B5C43",
"%. c #8C5D4B",
"&. c #875547",
"*. c #935C4B",
"=. c #915A45",
"-. c #955D51",
";. c #895954",
":. c #8C634C",
">. c #896148",
",. c #95644C",
"<. c #9B634D",
"1. c #98664B",
"2. c #8A6557",
"3. c #9D6453",
"4. c #966C54",
"5. c #9C6B54",
"6. c #9B6B5B",
"7. c #946858",
"8. c #9C725D",
"9. c #987058",
"0. c #A46B54",
"q. c #A46C5B",
"w. c #A96D5C",
"e. c #A36656",
"r. c #A4735B",
"t. c #AC745B",
"y. c #AA7559",
"u. c #AF7158",
"i. c #896C64",
"p. c #966A63",
"a. c #87756B",
"s. c #9A7667",
"d. c #847C7A",
"f. c #997C78",
"g. c #A86F62",
"h. c #A47463",
"j. c #AC7362",
"k. c #A57A69",
"l. c #AB7C6B",
"z. c #A87967",
"x. c #B47B64",
"c. c #B57C6B",
"v. c #B77868",
"b. c #B97B76",
"n. c #A87D75",
"m. c #D76656",
"M. c #C67665",
"N. c #84817E",
"B. c #8B857F",
"V. c #9D887E",
"C. c #B4846E",
"Z. c #BB826C",
"A. c #B9856A",
"S. c #A7867A",
"D. c #BC8573",
"F. c #BC8A74",
"G. c #BD8B7C",
"H. c #B48777",
"J. c #BB917D",
"K. c #AE816D",
"L. c #C28B76",
"P. c #C58E7A",
"I. c #C6947C",
"U. c #596784",
"Y. c #636C83",
"T. c #6C758B",
"R. c #6A7388",
"E. c #737683",
"W. c #767982",
"Q. c #7B7D84",
"!. c #767B8A",
"~. c #6B7894",
"^. c #737D93",
"/. c #717E9A",
"(. c #877E87",
"). c #BD7F82",
"_. c #7E828C",
"`. c #7C8392",
"'. c #7B859C",
"]. c #79849A",
"[. c #7D8BA5",
"{. c #7D92B9",
"}. c #868588",
"|. c #988B87",
" X c #878B96",
".X c #8C919A",
"XX c #979695",
"oX c #979092",
"OX c #B68A84",
"+X c #B2958C",
"@X c #B1A19B",
"#X c #838EA6",
"$X c #8E95A3",
"%X c #8994AB",
"&X c #969BA7",
"*X c #919CB4",
"=X c #929EB8",
"-X c #8A99B5",
";X c #9BA1AC",
":X c #99A4BA",
">X c #A4AAB7",
",X c #AFACAF",
"<X c #C48B87",
"1X c #C39384",
"2X c #C99582",
"3X c #C79B8A",
"4X c #CB9E97",
"5X c #D59A87",
"6X c #C7A398",
"7X c #D1A89A",
"8X c #D3A58F",
"9X c #D7B5A6",
"0X c #C9B8B4",
"qX c #D9B8B4",
"wX c #CDB0A8",
"eX c #E0BDAC",
"rX c #D2C2BC",
"tX c #E4C5B8",
"yX c #9EABC3",
"uX c #A2ADC3",
"iX c #A9ADC3",
"pX c #AAB5CA",
"aX c #A8B3C7",
"sX c #B1BAC9",
"dX c #B2BDD3",
"fX c #AFBFD7",
"gX c #BAC6D9",
"hX c #CECED2",
"jX c #E5CAC9",
"kX c #E7D1D1",
"lX c #C4D1E2",
"zX c #E7E6E5",
"xX c None",
/* pixels */
"xXxXxXxXxXxXxXxXxXxXxXxXxXxXxXxXxXxXxXxXxXxXxXxXxXxXzXzXzXhXkXkXxXxXxXxXxXxXxXxXxXxXxXxXxXxXxXxXxXxXxXxXxXxXxXxXxXxXxXxXxXxXxXxX",
"xXxXxXxXxXxXxXxXxXxXxXxXxXxXxXxXxXxXxXxXxXxXxXxXhXhXhXrX0X0XhXhXrX0XxXxXxXxXxXxXxXxXxXxXxXxXxXxXxXxXxXxXxXxXxXxXxXxXxXxXxXxXxXxX",
"xXxXxXxXxXxXxXxXxXxXxXxXxXxXxXxXxXxXxXxXxXxXxX,X@X,XwXwX0XtX9X4X|.V.|.XXxXxXxXxXxXxXxXxXxXxXxXxXxXxXxXxXxXxXxXxXxXxXxXxXxXxXxXxX",
"xXxXxXxXxXxXxXxXxXxXxXxXxXxXxXxXxXxXxXxXxXxXrXrXkXkXjXqXwX7X5XI.P.H.s.( f.xXxXxXxXxXxXxXxXxXxXxXxXxXxXxXxXxXxXxXxXxXxXxXxXxXxXxX",
"xXxXxXxXxXxXxXxXxXxXxXxXxXxXxXxXxXxXxXxXxXxXtXtXjXjXqXqX7X<XP.P.P.F.A.x.K.V.xXxXxXxXxXxXxXxXxXxXxXxXxXxXxXxXxXxXxXxXxXxXxXxXxXxX",
"xXxXxXxXxXxXxXxXxXxXxXxXxXxXxXxXxXxXxXxXxX9XtX9X7X7X4X3X2XP.L.L.L.F.Z.A.K.s.xXxXxXxXxXxXxXxXxXxXxXxXxXxXxXxXxXxXxXxXxXxXxXxXxXxX",
"xXxXxXxXxXxXxXxXxXxXxXxXxXxXxXxXxXxXxXxXxXwX9X8X2X1XL.D.M.Z.x.Z.x.A.A.y.y.K.a.xXxXxXxXxXxXxXxXxXxXxXxXxXxXxXxXxXxXxXxXxXxXxXxXxX",
"xXxXxXxXxXxXxXxXxXxXxXxXxXxXxXxXxXxXxXxX+X6X8XI.L.M.c.x.c.c.x.x.x.u.u.u.y.y.s.xXxXxXxXxXxXxXxXxXxXxXxXxXxXxXxXxXxXxXxXxXxXxXxXxX",
"xXxXxXxXxXxXxXxXxXxXxXxXxXxXxXxXxXxXxXxX|.J.I.I.L.L.L.D.Z.c.x.u.x.u.u.0.0.y.8.xXxXxXxXxXxXxXxXxXxXxXxXxXxXxXxXxXxXxXxXxXxXxXxXxX",
"xXxXxXxXxXxXxXxXxXxXxXxXxXxXxXxXxXxXxXxXXXH.I.I.2X2X2X1XF.Z.v.Z.L.v.x.y.0.y.4.xXxXxXxXxXxXxXxXxXxXxXxXxXxXxXxXxXxXxXxXxXxXxXxXxX",
"xXxXxXxXxXxXxXxXxXxXxXxXxXxXxXxXxXxXxXxXS.J.I.3XOXl.z.h.t.x.A.A.v.x.y.y.y.y.2.xXxXxXxXxXxXxXxXxXxXxXxXxXxXxXxXxXxXxXxXxXxXxXxXxX",
"xXxXxXxXxXxXxXxXxXxXxXxXxXxXxXxXxXxXxXxXs.J.2XC.q.:.+.+.1.u.u.0.1.+.#.$.4.r.A xXxXxXxXxXxXxXxXxXxXxXxXxXxXxXxXxXxXxXxXxXxXxXxXxX",
"xXxXxXxXxXxXxXxXxXxXxXxXxXxXxXxXxXxXxXk.2.2X2Xz.:.B , 4 6 q.t.=.< , , 5 #.4.>.xXxXxXxXxXxXxXxXxXxXxXxXxXxXxXxXxXxXxXxXxXxXxXxXxX",
"xXxXxXxXxXxXxXxXxXxXxXxXxXxXxXxXxXxXm.M.2.J.2XC.h.6.;.&.6.c.L.e.O.4 5 4 6 4.B xXxXxXxXxXxXxXxXxXxXxXxXxXxXxXxXxXxXxXxXxXxXxXxXxX",
"xXxXxXxXxXxXxXxXxXxXxXxXxXxXxXxXxXxXm.M.h.F.I.2XG.c.h.h.c.1X1Xv.1.$.,.1.<.5.m xXxXxXxXxXxXxXxXxXxXxXxXxXxXxXxXxXxXxXxXxXxXxXxXxX",
"xXxXxXxXxXxXxXxXxXxXxXxXxXxXxXxXxXxXxXM.v.J.A.L.P.b.w.q.F.<XD.x.y.1.3.q.u.5.O.xXxXxXxXxXxXxXxXxXxXxXxXxXxXxXxXxXxXxXxXxXxXxXxXxX",
"xXxXxXxXxXxXxXxXxXxXxXxXxXxXxXxXxXxXxX5X2XI.A.x.t.<.,.h.h.*.-.=.@.@.@.1.0.5.1.xXxXxXxXxXxXxXxXxXxXxXxXxXxXxXxXxXxXxXxXxXxXxXxXxX",
"xXxXxXxXxXxXxXxXxXxXxXxXxXxXxXxXxXxXxX5XP.I.A.y.5.=.5.l.l.6.*.&.$.,.@.@.1.r.xXxXxXxXxXxXxXxXxXxXxXxXxXxXxXxXxXxXxXxXxXxXxXxXxXxX",
"xXxXxXxXxXxXxXxXxXxXxXxXxXxXxXxXxXxXxXxXF.J.F.8.0.>.m ;.7.7.;.&.&.4 6 $.$.5.xXxXxXxXxXxXxXxXxXxXxXxXxXxXxXxXxXxXxXxXxXxXxXxXxXxX",
"xXxXxXxXxXxXxXxXxXxXxXxXxXxXxXxXxXxXxXxXxXF.C.r.r.,.2.p.p.;.;.&.5 5 $.1.>.5.xXxXxXxXxXxXxXxXxXxXxXxXxXxXxXxXxXxXxXxXxXxXxXxXxXxX",
"xXxXxXxXxXxXxXxXxXxXxXxXxXxXxXxXxXxXxXxXxXC.K.9.8.8.s.z.z.6.5.5.3.,.%.>.:.xXxXxXxXxXxXxXxXxXxXxXxXxXxXxXxXxXxXxXxXxXxXxXxXxXxXxX",
"xXxXxXxXxXxXxXxXxXxXxXxXxXxXxXxXxXxXxXxXxXJ.K.8.7.9.r.h.h.h.5.1.<.%.#.#.:.xXxXxXxXxXxXxXxXxXxXxXxXxXxXxXxXxXxXxXxXxXxXxXxXxXxXxX",
"xXxXxXxXxXxXxXxXxXxXxXxXxXxXxXxXxXxXxXxXxX3XK.K.8.7.h.k.n.h.8.5.,.>.m A xXxXxXxXxXxXxXxXxXxXxXxXxXxXxXxXxXxXxXxXxXxXxXxXxXxXxXxX",
"xXxXxXxXxXxXxXxXxXxXxXxXxXxXxXxXxXxXxXxXxX+Xk.9.7.7.2.:.:.%.>.@.m m >.xXxXxXxXxXxXxXxXxXxXxXxXxXxXxXxXxXxXxXxXxXxXxXxXxXxXxXxXxX",
"xXxXxXxXxXxXxXxXxXxXxXxXxXxXxXxXxXxXxXaXqXOXl.7.2.%.#.m 5 4 5 4 6 m ,.xXxXxXxXxXxXxXxXxXxXxXxXxXxXxXxXxXxXxXxXxXxXxXxXxXxXxXxXxX",
"xXxXxXxXxXxXxXxXxXxXxXxXxXxXxXxXxXgX{.~.(.).l.7.%.m 5 4 4 4 4 5 6 $.xXxXxXxXxXxXxXxXxXxXxXxXxXxXxXxXxXxXxXxXxXxXxXxXxXxXxXxXxXxX",
"xXxXxXxXxXxXxXxXxXxXxXxXxXxXxXlXyXfX[.U.r l i.7.%.#.+.6 +.+.+.$.>.>.xXxXxXxXxXxXxXxXxXxXxXxXxXxXxXxXxXxXxXxXxXxXxXxXxXxXxXxXxXxX",
"xXxXxXxXxXxXxXxXxXxXxXxXxXlXlXlXyXyX-X[.U.q q N #.&.+.+.+.=.@.@.@.>.xXxXxXxXxXxXxXxXxXxXxXxXxXxXxXxXxXxXxXxXxXxXxXxXxXxXxXxXxXxX",
"xXxXxXxXxXxXxXxXxXxXxXgXlXgXfXsXyXyX-X#X].U.0 @ > B 5 &.O.&.+.O.#.@.B xXxXxXxXxXxXxXxXxXxXxXxXxXxXxXxXxXxXxXxXxXxXxXxXxXxXxXxXxX",
"xXxXxXxXxXxXxXxXxXgXgXgXpXyXgXpXfXyX:X[.[./.T.r & = B m O.5 5 O.+.6 B _ >XxXxXxXxXxXxXxXxXxXxXxXxXxXxXxXxXxXxXxXxXxXxXxXxXxXxXxX",
"xXxXxXxXxXxXxX:XaXpXpXuXyXyXuXuXyXyX=X%X[.'.~.T.P 7 o < 5 5 O.O.6 O.s 9 o.;X>XgXxXxXxXxXxXxXxXxXxXxXxXxXxXxXxXxXxXxXxXxXxXxXxXxX",
"xXxXxXxXxXxXsXpXaXaXuXyX%X'.%X:X=X*X-X#X~./.].T.R.R 7 + % < 6 5 5 , * * } oX&X;X>X,XgXxXxXxXxXxXXXxXxXxXxXxXxXxXxXxXxXxXxXxXxXxX",
"xXxXxXxXxXlXpX:X=X=X%X#X-X^.E ]. XT.%X#X X~.^.T.R.R.K 9 O X % # X X @ g ` ...X.X.X$X>XiXxXxXxXXXxXxXxXxXxXxXxXxXxXxXxXxXxXxXxXxX",
"xXxXxXxXgXsX*X#X[.~./.*XaX>X^.D T.]._ ' Y.oXqX+X! U.T [ k + + + + o 9 v ! ` W. X X X(.*X>XsX,XxXxXxXxXxXxXxXxXxXxXxXxX|.tXeXxXxX",
"xXxXxXaX>X[.[.'.T./.].R.R. X;X' L ^.`.{ +X<Xv.g.( Y.` @XOX( K U ! ! _ b K J ! _ Y.(.E.Y. X$XXXxXxXxXxXxXxXxXxXxX4Xv.f.4X1XA.t.xX",
"xXxXxXiXpXdXdXiXuXuX=X].T.R D T L ^.}.(.<Xg.-.p.[ (.OXv.w.p.K G G T ] b Y z * & G (.G 9 ! }.;XxXxXxXxXxXxXxXxXH.p.&.;.OX8.,.>.xX",
"xXxXaXlXlXgXdXdXdXpXyX/.U.!.Y.E L D o.6XD.e.*.c ( <Xg.e.3.( J J L R T k _ Y * * J ....h h  ..XxXxXxXxXxXxXxXxXf.s.2.4.>.$.@.$.:.",
"xXxXpX>X:XuXiXuXpXpX:X%X`.`.E.h }.` S.2Xt.<.7.@X4Xv.e.-.B J ` ] _ T H k G K 9 & & G oX0 9 Q `.>XxXxXxXxXxXxX!.n.V.9.9.4.,.>.$.>.",
"xXsXuX%X#X/.~.~.=XfXpXsXaX&X.X~ h (.3XG.e.-.7.OXc.e.e.7.| E.U _ R.Y.` H J G 9 o o & H @ * W E.%X&X$XxXxXT.[.}.|.S.K.K.4.1.@.@.6 ",
"xXpXuXpXuX*XL L [.R.~.>X>X X! ( d.@X3XH.<.w.j.w.g.e.g.i.z T ` J K T J n T ] G @ o o e O O x ..T T $X;X%XU.].e A 4.4.9.9.>.>.@.4 ",
"xXiXaX#X XU E %XE K ~.Y.( |.@X9XeXjX<Xw.<.q.j.e.0.0.;.H _ _ U ] ' L G p h D U h o o l O + e V F D ].].E _.U.e 3 a.s.9.,.$.$.+.% ",
"xXaX'.U W.Y.'.R.!.R.h a.9X9X9X7X8X7Xj.*.-.e.w.0.e.h.!.o.{ !.Q...W.E.{ H J J K h f q ` o O * k X.{.]._.].D q S e N Z 9.4.:.+., a ",
"xX&Xh W.`.T.`.$X'.`.C 7X8X3X1XOXL.L.3.O.=.3.e.e.0.( D g K J G G F G h g U ] E.` H q w 7 o X F G L Y.e '.L e T N.d c 3 3 A , 3 C ",
"xXT { W.] `. X>X;X&Xa.7X3XG.3X3XP.x.5 1 &.*.<.w.h.E.`.Q.Q.Q.W.....` I i j h S Y _ T l h g q e e T ! x ; d e d a b x # X # > a xX",
"}.U } } ..;X.X:X.X_.a.OXOXc.OXG.M.w.1 < O.*.e.j.2.P h h J U ! H H H b n ! Y L J h f j u 9 e D e D E # $ # ; % # M e # ; t 3 xXxX",
".XW.X.V _.,X_.] T.{ N H.l.3.l.l.g.-.< < 1 -.e.e.w E.o...` H b H I x u u g v U ] I v f 8 ; 9 0 S L F S X # # : 3 C u - - xXxXxXxX",
"}.X.N.}.] _.T * D { u k.z.3.3.b.g.e.< < 1 -.e.e.% w x H W ^ [ ^ x n W x g g j h l k n p - - 9 S D D e 8 # : ; M 3 M xXxXxXxXxXxX",
"Q.) XX;X}.W.`.7 P F H i.l.6.-.OX+Xg.< 1 O.=.e.e.n.6X|.I W g k M k x H n n g g g h i f w # 9 9 S D F g t : : 3 3 d C xXxXxXxXxXxX",
"xX .XX_.Q.XX,XG F } q ) C.r.*.l.J.m , < =.-.e.j.b.<X4X(.( ^ a p x H z g H V g g G p p - - 8 8 z F x p - ; # > d V xXxXxXxXxXxXxX",
"xX}._.`.b Y .X_.e  .Y - Z r.6.&.% .   2 1 &.g.b.b.).<X<X).Z v ^ { ! ^ ! v e b b x k p k d y p v x e t - 3 - 3 V xXxXxXxXxXxXxXxX",
"xXxXXX.X} } _._.H x Y ^ x p.H.p.; $ $   . , ;.D.M.).).M.M.l.x J U { } _ _.U v j h g i k xXxXxX^ V d p - 3 > a xXxXxXxXxXxXxXxXxX",
"xXxXxX}.b V .XY N.z Y C N M C k d 3 ; e k w N f.+Xb.g.g.g.7.| { _ z z K G ! Q.} g p p p xXxXxXxXxX) V t e c 3 xXxXxXxXxXxXxXxXxX",
"xXxXxXB.N.Y ..W.v }.g ) k # t N d 3 # u V a u p I x w N Z n I ]  .X.X.X.) b g b ^ H x c xXxXxXxXxXxXxXt xXM d xXxXxXxXxXxXxXxXxX",
"xXxXxXxX_.X.X.XX9  X] g }.N 3 ; # 3 V k c V W ~ I Q ^ ^ I J H G z p e x V / ) b g v I V xXxXxXxXxXxXxX; : : % xXxXxXxXxXxXxXxXxX",
"xXxXxXxXxX_.` oX~ Y oX- g B.8 p a.d.c n x a t u p k n I ~ ..o.Q.X.X.) C k e k ~ / x x I xXxXxXxXxXxX- ; : : ; xXxXxXxXxXxXxXxXxX",
"xXxXxXxXxX;X] X.b u p b Q X.N.b g c d p c V ) Q M I I H l l f w e p v ^ X.X.) v k / ^ Q xXxXxXxXxXxXxXxX% xXxXxXxXxXxXxXxXxXxXxX",
"xXxXxXxXxX#XW..X.XY u / | f h | / W ( ~ ^ W n x b W ~ | ) N.N.N.B.B.X.H u p b  .} d v ) xXxXxXxXxXxXxXxXxXxXxXxXxXxXxXxXxXxXxXxX",
"xXxXxXxXxX.XW.!.{ W k p G E.W.H n H g p g x M c v v z p e e u g g k v ~ N.N.^ k V  .c V xXxXxXxXxXxXxXxXxXxXxXxXxXxXxXxXxXxXxXxX",
"xXxXxXxXxX}.!._.b g g { !._ G g g H `  .X. .~ /  .o.X.X.a.N.}.B.N.X./ b u x ` N.) v  .xXxXxXxXxXxXxXxXxXxXxXxXxXxXxXxXxXxXxXxXxX",
"xXxXxXxXxXxXxXxXxXxXxXxXxXxXxXxXxXxXxXxXxXxXxXxXxXxXxXxXxXxXxXxXxXxXxXxXxXxXxXxXxXxXxXxXxXxXxXxXxXxXxXxXxXxXxXxXxXxXxXxXxXxXxXxX",
"xXxXxXxXxXxXxXxXxXxXxXxXxXxXxXxXxXxXxXxXxXxXxXxXxXxXxXxXxXxXxXxXxXxXxXxXxXxXxXxXxXxXxXxXxXxXxXxXxXxXxXxXxXxXxXxXxXxXxXxXxXxXxXxX",
"xXxXxXxXxXxXxXxXxXxXxXxXxXxXxXxXxXxXxXxXxXxXxXxXxXxXxXxXxXxXxXxXxXxXxXxXxXxXxXxXxXxXxXxXxXxXxXxXxXxXxXxXxXxXxXxXxXxXxXxXxXxXxXxX",
"xXxXxXxXxXxXxXxXxXxXxXxXxXxXxXxXxXxXxXxXxXxXxXxXxXxXxXxXxXxXxXxXxXxXxXxXxXxXxXxXxXxXxXxXxXxXxXxXxXxXxXxXxXxXxXxXxXxXxXxXxXxXxXxX",
"xXxXxXxXxXxXxXxXxXxXxXxXxXxXxXxXxXxXxXxXxXxXxXxXxXxXxXxXxXxXxXxXxXxXxXxXxXxXxXxXxXxXxXxXxXxXxXxXxXxXxXxXxXxXxXxXxXxXxXxXxXxXxXxX"
};
