/* XPM */
static char *fceb2cea50854463ae6b745312a3466cS7z5L27wMqXh5FcS[] = {
/* columns rows colors chars-per-pixel */
"64 64 80 1 ",
"  c black",
". c #010101",
"X c #020202",
"o c gray1",
"O c #040404",
"+ c gray2",
"@ c #060606",
"# c #070707",
"$ c gray3",
"% c #090909",
"& c gray4",
"* c #0B0B0B",
"= c #0C0C0C",
"- c gray5",
"; c #0E0E0E",
": c #111111",
"> c gray7",
", c #131313",
"< c gray8",
"1 c gray9",
"2 c #191919",
"3 c #252525",
"4 c gray18",
"5 c #2F2F2F",
"6 c gray30",
"7 c #4E4E4E",
"8 c gray35",
"9 c gray48",
"0 c #818181",
"q c gray51",
"w c #838383",
"e c #848484",
"r c #868686",
"t c gray53",
"y c #888888",
"u c #898989",
"i c gray54",
"p c #9A9A9A",
"a c #A4A4A4",
"s c #AEAEAE",
"d c #B4B4B4",
"f c gray72",
"g c #B9B9B9",
"h c #BBBBBB",
"j c gray74",
"k c gray",
"l c gray75",
"z c #C0C0C0",
"x c #C1C1C1",
"c c gray76",
"v c #C3C3C3",
"b c gray77",
"n c #C8C8C8",
"m c gray79",
"M c gainsboro",
"N c gray88",
"B c #E2E2E2",
"V c gray89",
"C c #E4E4E4",
"Z c gray90",
"A c #E6E6E6",
"S c #E7E7E7",
"D c #EAEAEA",
"F c gray92",
"G c #ECECEC",
"H c gray93",
"J c #EEEEEE",
"K c #F1F1F1",
"L c gray95",
"P c #F3F3F3",
"I c gray96",
"U c #F6F6F6",
"Y c gray97",
"T c #F8F8F8",
"R c #F9F9F9",
"E c gray98",
"W c gray99",
"Q c #FDFDFD",
"! c #FEFEFE",
"~ c white",
/* pixels */
"~~~~~~~~~~~~~~~~~~~~~~~~~~~~~~~~~~~~~~~~~~~~~~~~~~~~~~~~~~~~~~~~",
"~~~~~~~~~~~~~~~~~~~~~~~~~~~~~~~~~~~~~~~~~~~~~~~~~~~~~~~~~~~~~~~~",
"~~~~~~~~~~~~~~~~~~~~~~~~~~~~~~~~~~~~~~~~~~~~~~~~~~~~~~~~~~~~~~~~",
"~~~~~~~~~~~~~~~~~~~~~~~~~~~~~~~~~~~~~~~~~~~~~~~~~~~~~~~~~~~~~~~~",
"~~~~~~~~~~~~~~~~~~~~~~~~~~~~~~~~~~~~~~~~~~~~~~~~~~~~~~~~~~~~~~~~",
"~~~~~~~~~~~~~~~~~~~~~~~~~~~~~~~~~~~~~~~~~~~~~~~~~~~~~~~~~~~~~~~~",
"~~~~~~~~~~~~~~~~~~~~~~~~~~~~~~~~~~~~~~~~~~~~~~~~~~~~~~~~~~~~~~~~",
"~~~~~~~~~~~~~~~~~~~~~~~~~~~~~~~~~~~~~~~~~~~~~~~~~~~~~~~~~~~~~~~~",
"~~~~~~~~~~~~~~~~~~~~~~~~~~~~~~~~~~~~~~~~~~~~~~~~~~~~~~~~~~~~~~~~",
"~~~~~~~~~~~~~~~~~~~~~~~~~~~~~~~~~~~~~~~~~~~~~~~~~~~~~~~~~~~~~~~~",
"~~~~~~~~~~~~~~~~~~~~~~~~~~~~~~~~~~~~~~~~~~~~~~~~~~~~~~~~~~~~~~~~",
"~~~~~~~~~~~~~~~~~~~~~~~~~EzzzjjjjjL~~YjjjzzjjmzjzjjzjjL~~~~~~~~~",
"~~~~~~~~~~~~~~~~~~~~~~~~YtXXXXXX=z~~~GXXXXXX7M4XXXXXXXV~~~~~~~~~",
"~~~~~~~~~~~~~~~~~~~~~~~YtXXXXXX=j~~~~GXXXXX7ZE4XXXXXXXV~~~~~~~~~",
"~~~~~~~~~~~~~~~~~~~~~~YiXXXXXX=j~~~~~GXXXX6Z~E4XXXXXXXZ~~~~~~~~~",
"~~~~~~~~~~~~~~~~~~~~~YtXXXXX#=jE~~~~~GXXX6Z~~E4XXXXXXXV~~~~~~~~~",
"~~~~~~~~~~~~~~~~~~~~YtXXXXXX=j~~~~~~~GXX7V~~~E4XXXXXXXV~~~~~~~~~",
"~~~~~~~~~~~~~~~~~~~YiXXXXXX*j~~~~~~~~GX7Z~~~~Y4XXXXXXXV~~~~~~~~~",
"~~~~~~~~~~~~~~~~~~YtXXXXXX*h~~~~~~~~~G7Z~~~~~E4XXXXXXXV~~~~~~~~~",
"~~~~~~~~~~~~~~~~~YiXXXXXX*j~~~~~~~~~~LZ~~~~~~L3XXXXXX:Z~~~~~~~~~",
"~~~~~~~~~~~~~~~~YiXXXXXX*j~~~~~~~~~~~~~~~~~~Y0XXXXXX<b~~~~~~~~~~",
"~~~~~~~~~~~~~~~YiXXXXXX=j~~~~~~~~~~~~~~~~~~Y0XXXXXX:b~~~~~~~~~~~",
"~~~~~~~~~~~~~~YiXXXXXX=j~~~~~~~~~~~~~~~~~~Y0XXXXXX:b~~~~~~~~~~~~",
"~~~~~~~~~~~~~YtXXXXXX=j~~~~~~~~~~~~~~~~~~Y0XXXXXX:z~~~~~~~~~~~~~",
"~~~~~~~~~~~~YiXXXXXX=j~~~~~~~~~~~~~~~~~~Y0XXXXXX:z~~~~~~~~~~~~~~",
"~~~~~~~~~~~YiXXXXXX#j~~~~~~~~~~~~~~~~~~Y0XXXXXX:z~~~~~~~~~~~~~~~",
"~~~~~~~~~~YiXXXXXX#j~~~~~~~~~~~~~~~~~~Y0XXXXXX:z~~~~~~~~~~~~~~~~",
"~~~~~~~~~YiXXXXXXXaDGGDDGGGGGGDDGDY~~E0XXXXXXXz~~~~~~~E~~~~~~~~~",
"~~~~~~~~~LXXXXXXXXXXXXXXXXXXXXXXXXm~~GXXXXXXX=Y~~~~~~dV~~~~~~~~~",
"~~~~~~~~~LXXXXXXXXXXXXXXXXXXXXXXXXm~~GXXXXXXX*Y~~~~~hXV~~~~~~~~~",
"~~~~~~~~~LXXXXXXXXXXXXXXXXXXXXXXXXb~~GXXXXXXX*Y~~~~dXXV~~~~~~~~~",
"~~~~~~~~~LXXXXXXXXXXXXXXXXXXXXXXXXm~~GXXXXXXX*Y~~~d*XXZ~~~~~~~~~",
"~~~~~~~~~LXXXXXXXXXXXXXXXXXXXXXXXXb~~GXXXXXXX*Y~~h#XXXV~~~~~~~~~",
"~~~~~~~~~GXXXXXXXXXXXXXXXXXXXXXXXXm~~GXXXXXXX*Y~d#XXXXV~~~~~~~~~",
"~~~~~~~~~Ehhhhhhhhhhhhhhhh8XXXXXXXb~~GXXXXXXX*Yh#XXXXXV~~~~~~~~~",
"~~~~~~~~~~~~~~~~~~~~~~~~~~9XXXXXXXm~~G=::::::2s<::::::V~~~~~~~~~",
"~~~~~~~~~~~~~~~~~~~~~~~~~~9XXXXXXXm~~~YYYYYYYYYYEEYYEYE~~~~~~~~~",
"~~~~~~~~~~~~~~~~~~~~~~~~~~9XXXXXXXm~~~~~~~~~~~~~~~~~~~~~~~~~~~~~",
"~~~~~~~~~~~~~~~~~~~~~~~~~~9XXXXXXXm~~~~~~~~~~~~~~~~~~~~~~~~~~~~~",
"~~~~~~~~~~~~~~~~~~~~~~~~~~9XXXXXXXb~~~~~~~~~~~~~~~~~~~~~~~~~~~~~",
"~~~~~~~~~~~~~~~~~~~~~~~~~~9XXXXXXXb~~~~~~~~~~~~~~~~~~~~~~~~~~~~~",
"~~~~~~~~~~~~~~~~~~~~~~~~~~9XXXXXXXm~~~~~~~~~~~~~~~~~~~~~~~~~~~~~",
"~~~~~~~~~~~~~~~~~~~~~~~~~~dpppppppM~~~~~~~~~~~~~~~~~~~~~~~~~~~~~",
"~~~~~~~~~~~~~~~~~~~~~~~~~~~~~~~~~~~~~~~~~~~~~~~~~~~~~~~~~~~~~~~~",
"~~~~~~~~~~~~~~~~~~~~~~~~~~~~~~~~~~~~~~~~~~~~~~~~~~~~~~~~~~~~~~~~",
"~~~~~~~~~~~~~~~~~~~~~~~~~~~~~~~~~~~~~~~~~~~~~~~~~~~~~~~~~~~~~~~~",
"~~~~~~~~~~~~~~~~~~~~~~~~~~~~~~~~~~~~~~~~~~~~~~~~~~~~~~~~~~~~~~~~",
"~~~~~~~~~~~~~~~~~~~~~~~~~~~~~~~~~~~~~~~~~~~~~~~~~~~~~~~~~~~~~~~~",
"~~~~~~~~~~~~~~~~~~~~~~~~~~~~~~~~~~~~~~~~~~~~~~~~~~~~~~~~~~~~~~~~",
"~~~~~~~~~~~~~~~~~~~~~~~~~~~~~~~~~~~~~~~~~~~~~~~~~~~~~~~~~~~~~~~~",
"~~~~~~~~~~~~~~~~~~~~~~~~~~~~~~~~~~~~~~~~~~~~~~~~~~~~~~~~~~~~~~~~",
"~~~~~~~~~~~~~~~~~~~~~~~~~~~~~~~~~~~~~~~~~~~~~~~~~~~~~~~~~~~~~~~~",
"~~~~~~~~~~~~~~~~~~~~~~~~~~~~~~~~~~~~~~~~~~~~~~~~~~~~~~~~~~~~~~~~",
"~~~~~~~~~~~~~~~~~~~~~~~~~~~~~~~~~~~~~~~~~~~~~~~~~~~~~~~~~~~~~~~~",
"~~~~~~~~~~~~~~~~~~~~~~~~~~~~~~~~~~~~~~~~~~~~~~~~~~~~~~~~~~~~~~~~",
"~~~~~~~~~~~~~~~~~~~~~~~~~~~~~~~~~~~~~~~~~~~~~~~~~~~~~~~~~~~~~~~~",
"~~~~~~~~~~~~~~~~~~~~~~~~~~~~~~~~~~~~~~~~~~~~~~~~~~~~~~~~~~~~~~~~",
"~~~~~~~~~~~~~~~~~~~~~~~~~~~~~~~~~~~~~~~~~~~~~~~~~~~~~~~~~~~~~~~~",
"~~~~~~~~~~~~~~~~~~~~~~~~~~~~~~~~~~~~~~~~~~~~~~~~~~~~~~~~~~~~~~~~",
"~~~~~~~~~~~~~~~~~~~~~~~~~~~~~~~~~~~~~~~~~~~~~~~~~~~~~~~~~~~~~~~~",
"~~~~~~~~~~~~~~~~~~~~~~~~~~~~~~~~~~~~~~~~~~~~~~~~~~~~~~~~~~~~~~~~",
"~~~~~~~~~~~~~~~~~~~~~~~~~~~~~~~~~~~~~~~~~~~~~~~~~~~~~~~~~~~~~~~~",
"~~~~~~~~~~~~~~~~~~~~~~~~~~~~~~~~~~~~~~~~~~~~~~~~~~~~~~~~~~~~~~~~",
"~~~~~~~~~~~~~~~~~~~~~~~~~~~~~~~~~~~~~~~~~~~~~~~~~~~~~~~~~~~~~~~~"
};
